<?xml version="1.0" standalone="no"?>
<!DOCTYPE svg PUBLIC "-//W3C//DTD SVG 20010904//EN"
 "http://www.w3.org/TR/2001/REC-SVG-20010904/DTD/svg10.dtd">
<svg version="1.0" xmlns="http://www.w3.org/2000/svg"
 width="300.000000pt" height="300.000000pt" viewBox="0 0 300.000000 300.000000"
 preserveAspectRatio="xMidYMid meet">
<metadata>
Created by potrace 1.14, written by Peter Selinger 2001-2017
</metadata>
<g transform="translate(0.000000,300.000000) scale(0.100000,-0.100000)"
fill="#000000" stroke="none">
<path d="M742 2683 c22 -27 11 -52 -25 -58 -124 -20 -155 -28 -206 -56 -31
-18 -75 -47 -98 -65 -62 -50 -85 -56 -206 -50 l-107 5 -43 -33 c-37 -28 -42
-37 -45 -76 -2 -25 2 -62 8 -83 15 -51 112 -147 185 -182 l57 -28 -6 -71 c-25
-307 -31 -335 -95 -430 -89 -133 -111 -171 -126 -220 -50 -163 27 -344 180
-424 76 -40 237 -92 284 -92 45 0 88 -22 106 -52 22 -39 64 -93 122 -156 24
-26 43 -51 43 -55 0 -11 112 -155 169 -218 43 -48 45 -49 101 -49 77 0 176 32
245 78 31 21 132 106 223 190 92 83 204 183 248 224 45 40 140 127 211 193 71
66 175 163 233 215 57 52 169 156 248 230 80 74 226 209 325 300 99 91 188
179 198 195 41 70 7 180 -62 204 -69 24 -86 18 -316 -116 -48 -28 -104 -60
-123 -71 -37 -20 -105 -61 -205 -122 -197 -120 -239 -142 -255 -131 -56 41
-125 61 -205 61 -64 0 -87 4 -103 18 -22 18 -115 174 -127 212 -4 12 -27 64
-51 116 -24 53 -44 99 -44 103 0 5 -25 52 -55 106 l-56 98 16 45 c19 58 19 95
-1 138 -25 52 -59 74 -113 74 -46 0 -103 -25 -127 -56 -10 -13 -25 -10 -104
21 -80 31 -103 36 -164 34 -65 -2 -74 0 -100 25 -32 29 -57 36 -34 9z m513
-482 c103 -48 144 -126 106 -204 -11 -23 -27 -71 -35 -107 -8 -36 -19 -77 -25
-92 -5 -14 -21 -95 -35 -180 -22 -133 -33 -234 -51 -452 -2 -27 -9 -53 -17
-58 -7 -4 -37 -23 -67 -40 l-54 -31 -53 27 c-58 31 -57 29 -114 226 -72 253
-246 583 -332 635 -16 9 -28 22 -28 29 0 7 22 43 50 79 40 52 62 72 114 97 87
43 131 48 192 20 27 -12 74 -27 104 -34 l55 -13 16 -54 c19 -62 13 -89 -23
-107 -40 -19 -138 -26 -197 -13 -71 15 -163 70 -157 94 5 21 -12 23 -21 2 -9
-24 22 -51 102 -90 41 -19 95 -54 122 -76 86 -73 155 -94 211 -65 35 19 118
104 109 112 -4 4 -15 0 -25 -9 -32 -29 -90 -47 -149 -46 -62 0 -124 17 -71 18
57 2 183 41 228 71 14 9 47 25 73 35 48 18 74 46 61 66 -4 6 -12 2 -21 -11 -9
-12 -44 -35 -79 -51 -59 -28 -66 -29 -97 -15 -28 11 -36 22 -46 59 -18 75 -15
93 23 115 18 11 42 34 52 51 21 36 26 37 79 12z m1640 -137 c28 -11 44 -62 32
-98 -13 -39 -31 -61 -84 -96 -23 -16 -113 -87 -200 -159 -318 -262 -566 -463
-695 -565 -140 -110 -208 -168 -488 -411 -436 -379 -435 -378 -515 -309 -16
14 -23 23 -15 18 8 -4 -1 8 -21 27 -38 39 -165 204 -148 194 5 -4 -21 34 -58
84 -116 156 -173 241 -173 259 0 10 10 22 22 27 39 18 44 39 21 94 l-21 50 32
-5 c82 -15 214 -64 345 -131 79 -40 148 -73 154 -73 15 0 86 47 322 211 116
81 224 154 242 163 31 16 33 15 44 -6 31 -61 92 -75 131 -30 13 15 38 32 57
39 31 11 35 10 53 -12 25 -31 62 -32 92 -2 44 44 67 200 41 269 -4 11 7 23 42
43 85 49 333 196 526 312 184 110 218 124 262 107z"/>
</g>
</svg>
